<svg width="26" height="26" viewBox="0 0 26 26" fill="none" xmlns="http://www.w3.org/2000/svg">
<rect width="26" height="26" fill="#1E1E1E"/>
<g id="main" clip-path="url(#clip0_0_1)">
<rect width="1920" height="2601" transform="translate(-1047 -2508)" fill="#F9F9F9"/>
<g id="footer">
<rect id="bgc" x="-1047" y="-127" width="1920" height="220" fill="#998431"/>
<g id="row-2">
<g id="soc-icons">
<g id="carbon:logo-youtube">
<path id="Vector" d="M23.8957 7.52373C23.7663 7.04276 23.5128 6.60423 23.1606 6.25203C22.8084 5.89983 22.3698 5.64631 21.8889 5.51685C20.1176 5.03748 13.0001 5.03748 13.0001 5.03748C13.0001 5.03748 5.88262 5.03748 4.11137 5.51685C3.63041 5.64631 3.19188 5.89983 2.83968 6.25203C2.48748 6.60423 2.23396 7.04276 2.1045 7.52373C1.77377 9.33013 1.61327 11.1636 1.62512 13C1.61327 14.8364 1.77377 16.6698 2.1045 18.4762C2.23396 18.9572 2.48748 19.3957 2.83968 19.7479C3.19188 20.1001 3.63041 20.3536 4.11137 20.4831C5.88262 20.9625 13.0001 20.9625 13.0001 20.9625C13.0001 20.9625 20.1176 20.9625 21.8889 20.4831C22.3698 20.3536 22.8084 20.1001 23.1606 19.7479C23.5128 19.3957 23.7663 18.9572 23.8957 18.4762C24.2265 16.6698 24.387 14.8364 24.3751 13C24.387 11.1636 24.2265 9.33013 23.8957 7.52373V7.52373ZM10.7251 16.4125V9.58747L16.632 13L10.7251 16.4125Z" fill="white"/>
</g>
</g>
</g>
<g id="row-1">
</g>
</g>
</g>
<defs>
<clipPath id="clip0_0_1">
<rect width="1920" height="2601" fill="white" transform="translate(-1047 -2508)"/>
</clipPath>
</defs>
</svg>
