<svg width="24" height="24" viewBox="0 0 24 24" fill="none" xmlns="http://www.w3.org/2000/svg">
<rect width="24" height="24" fill="#1E1E1E"/>
<g id="main" clip-path="url(#clip0_0_1)">
<rect width="1920" height="2601" transform="translate(-1108 -2510)" fill="#F9F9F9"/>
<g id="footer">
<rect id="bgc" x="-1108" y="-129" width="1920" height="220" fill="#998431"/>
<g id="row-2">
<g id="soc-icons">
<g id="entypo-social:vk">
<g clip-path="url(#clip1_0_1)">
<path id="Vector" fill-rule="evenodd" clip-rule="evenodd" d="M21.3625 14.7575C21.3625 14.7575 23.3029 16.6739 23.7829 17.5607C23.7922 17.5735 23.7995 17.5877 23.8045 17.6027C24.0001 17.9303 24.0481 18.1871 23.9521 18.3767C23.7901 18.6899 23.2417 18.8471 23.0557 18.8603H19.6261C19.3873 18.8603 18.8905 18.7979 18.2857 18.3803C17.8237 18.0575 17.3641 17.5259 16.9189 17.0063C16.2541 16.2347 15.6793 15.5651 15.0973 15.5651C15.0238 15.565 14.9508 15.5771 14.8813 15.6011C14.4409 15.7403 13.8817 16.3679 13.8817 18.0395C13.8817 18.5627 13.4689 18.8603 13.1797 18.8603H11.6089C11.0737 18.8603 8.28731 18.6731 5.81651 16.0679C2.78891 12.8783 0.0697081 6.47993 0.0433081 6.42353C-0.125892 6.00953 0.229308 5.78393 0.613308 5.78393H4.07651C4.54091 5.78393 4.69211 6.06473 4.79771 6.31673C4.92011 6.60593 5.37371 7.76273 6.11771 9.06233C7.32251 11.1767 8.06291 12.0371 8.65451 12.0371C8.76566 12.0375 8.87492 12.0085 8.97131 11.9531C9.74411 11.5283 9.60011 8.76833 9.56411 8.19953C9.56411 8.08913 9.56291 6.96713 9.16691 6.42473C8.88371 6.03593 8.40131 5.88473 8.10971 5.82953C8.18771 5.71673 8.35331 5.54393 8.56571 5.44193C9.09491 5.17793 10.0513 5.13953 11.0005 5.13953H11.5273C12.5569 5.15393 12.8233 5.21993 13.1977 5.31473C13.9513 5.49473 13.9657 5.98313 13.8997 7.64633C13.8805 8.12153 13.8601 8.65673 13.8601 9.28673C13.8601 9.42113 13.8541 9.57113 13.8541 9.72353C13.8313 10.5767 13.8013 11.5379 14.4037 11.9327C14.4818 11.9814 14.5721 12.0072 14.6641 12.0071C14.8729 12.0071 15.4981 12.0071 17.1937 9.09713C17.9377 7.81193 18.5137 6.29633 18.5533 6.18233C18.5869 6.11873 18.6877 5.93993 18.8101 5.86793C18.8972 5.8216 18.9947 5.79846 19.0933 5.80073H23.1673C23.6113 5.80073 23.9125 5.86793 23.9713 6.03593C24.0697 6.30833 23.9521 7.13993 22.0921 9.65513C21.7789 10.0739 21.5041 10.4363 21.2629 10.7531C19.5769 12.9659 19.5769 13.0775 21.3625 14.7575V14.7575Z" fill="white"/>
</g>
</g>
</g>
</g>
<g id="row-1">
</g>
</g>
</g>
<defs>
<clipPath id="clip0_0_1">
<rect width="1920" height="2601" fill="white" transform="translate(-1108 -2510)"/>
</clipPath>
<clipPath id="clip1_0_1">
<rect width="24" height="24" fill="white"/>
</clipPath>
</defs>
</svg>
